# xmcd CD database file
#
# Track frame offsets:
#	150
#	24669
#	39015
#	58726
#	74000
#	86171
#
# Disc length: 1405 seconds
#
# Revision: 0
# Processed by: cddbd v1.5.1PL0 Copyright (c) Steve Scherf et al.
# Submitted via: CDex 1.51
#
DISCID=4d057b06
DTITLE=The Lincoln Center Jazz Orchestra - Essentially Ellington 05
DYEAR=2004
DGENRE=Jazz
TTITLE0=Happy Go Lucky Local
TTITLE1=Purple Gazelle
TTITLE2=Isfahan
TTITLE3=V.I.P.'s Boogie
TTITLE4=Ring Dem Bells
TTITLE5=I Didn't Know About You
EXTD=YEAR: 2004
EXTT0=
EXTT1=
EXTT2=
EXTT3=
EXTT4=
EXTT5=
PLAYORDER=
